<?xml version="1.0" encoding="UTF-8" standalone="no"?>
<!DOCTYPE svg PUBLIC "-//W3C//DTD SVG 1.1//EN"
 "http://www.w3.org/Graphics/SVG/1.1/DTD/svg11.dtd">
<!-- Generated by graphviz version 2.40.1 (20161225.0304)
 -->
<!-- Title: controllers_diagram Pages: 1 -->
<svg width="359pt" height="245pt"
 viewBox="0.00 0.00 359.38 245.00" xmlns="http://www.w3.org/2000/svg" xmlns:xlink="http://www.w3.org/1999/xlink">
<g id="graph0" class="graph" transform="scale(1 1) rotate(0) translate(4 241)">
<title>controllers_diagram</title>
<polygon fill="transparent" stroke="transparent" points="-4,4 -4,-241 355.3755,-241 355.3755,4 -4,4"/>
<!-- _diagram_info -->
<g id="node1" class="node">
<title>_diagram_info</title>
<text text-anchor="start" x="152" y="-90.6" font-family="Times,serif" font-size="13.00" fill="#000000">Controllers diagram</text>
<text text-anchor="start" x="152" y="-77.6" font-family="Times,serif" font-size="13.00" fill="#000000">Date: Mar 02 2017 &#45; 13:28</text>
<text text-anchor="start" x="152" y="-64.6" font-family="Times,serif" font-size="13.00" fill="#000000">Migration version: 20170302162651</text>
<text text-anchor="start" x="152" y="-51.6" font-family="Times,serif" font-size="13.00" fill="#000000">Generated by RailRoady 1.5.2</text>
<text text-anchor="start" x="152" y="-38.6" font-family="Times,serif" font-size="13.00" fill="#000000">http://railroady.prestonlee.com</text>
</g>
<!-- ApplicationController -->
<g id="node2" class="node">
<title>ApplicationController</title>
<path fill="none" stroke="#000000" d="M156,-144.5C156,-144.5 271.6416,-144.5 271.6416,-144.5 277.6416,-144.5 283.6416,-150.5 283.6416,-156.5 283.6416,-156.5 283.6416,-224.5 283.6416,-224.5 283.6416,-230.5 277.6416,-236.5 271.6416,-236.5 271.6416,-236.5 156,-236.5 156,-236.5 150,-236.5 144,-230.5 144,-224.5 144,-224.5 144,-156.5 144,-156.5 144,-150.5 150,-144.5 156,-144.5"/>
<text text-anchor="middle" x="213.8208" y="-221.3" font-family="Times,serif" font-size="14.00" fill="#000000">ApplicationController</text>
<polyline fill="none" stroke="#000000" points="144,-214.5 283.6416,-214.5 "/>
<polyline fill="none" stroke="#000000" points="144,-190.5 283.6416,-190.5 "/>
<polyline fill="none" stroke="#000000" points="144,-166.5 283.6416,-166.5 "/>
<text text-anchor="start" x="152" y="-151.3" font-family="Times,serif" font-size="14.00" fill="#000000">_layout</text>
</g>
<!-- SongsController -->
<g id="node3" class="node">
<title>SongsController</title>
<path fill="none" stroke="#000000" d="M12,-.5C12,-.5 95.7793,-.5 95.7793,-.5 101.7793,-.5 107.7793,-6.5 107.7793,-12.5 107.7793,-12.5 107.7793,-190.5 107.7793,-190.5 107.7793,-196.5 101.7793,-202.5 95.7793,-202.5 95.7793,-202.5 12,-202.5 12,-202.5 6,-202.5 0,-196.5 0,-190.5 0,-190.5 0,-12.5 0,-12.5 0,-6.5 6,-.5 12,-.5"/>
<text text-anchor="middle" x="53.8896" y="-187.3" font-family="Times,serif" font-size="14.00" fill="#000000">SongsController</text>
<polyline fill="none" stroke="#000000" points="0,-180.5 107.7793,-180.5 "/>
<text text-anchor="start" x="8" y="-165.3" font-family="Times,serif" font-size="14.00" fill="#000000">index</text>
<text text-anchor="start" x="8" y="-151.3" font-family="Times,serif" font-size="14.00" fill="#000000">destroy</text>
<text text-anchor="start" x="8" y="-137.3" font-family="Times,serif" font-size="14.00" fill="#000000">edit</text>
<text text-anchor="start" x="8" y="-123.3" font-family="Times,serif" font-size="14.00" fill="#000000">create</text>
<text text-anchor="start" x="8" y="-109.3" font-family="Times,serif" font-size="14.00" fill="#000000">new</text>
<text text-anchor="start" x="8" y="-95.3" font-family="Times,serif" font-size="14.00" fill="#000000">show</text>
<text text-anchor="start" x="8" y="-81.3" font-family="Times,serif" font-size="14.00" fill="#000000">update</text>
<polyline fill="none" stroke="#000000" points="0,-74.5 107.7793,-74.5 "/>
<polyline fill="none" stroke="#000000" points="0,-50.5 107.7793,-50.5 "/>
<text text-anchor="start" x="8" y="-35.3" font-family="Times,serif" font-size="14.00" fill="#000000">_layout</text>
<text text-anchor="start" x="8" y="-21.3" font-family="Times,serif" font-size="14.00" fill="#000000">set_song</text>
<text text-anchor="start" x="8" y="-7.3" font-family="Times,serif" font-size="14.00" fill="#000000">song_params</text>
</g>
</g>
</svg>
