<?xml version="1.0" encoding="UTF-8" standalone="no"?>
<!DOCTYPE svg PUBLIC "-//W3C//DTD SVG 1.1//EN"
 "http://www.w3.org/Graphics/SVG/1.1/DTD/svg11.dtd">
<!-- Generated by graphviz version 2.40.1 (20161225.0304)
 -->
<!-- Title: models_diagram Pages: 1 -->
<svg width="725pt" height="386pt"
 viewBox="0.00 0.00 725.32 386.00" xmlns="http://www.w3.org/2000/svg" xmlns:xlink="http://www.w3.org/1999/xlink">
<g id="graph0" class="graph" transform="scale(1 1) rotate(0) translate(4 382)">
<title>models_diagram</title>
<polygon fill="transparent" stroke="transparent" points="-4,4 -4,-382 721.3225,-382 721.3225,4 -4,4"/>
<!-- _diagram_info -->
<g id="node1" class="node">
<title>_diagram_info</title>
<text text-anchor="start" x="8" y="-286.6" font-family="Times,serif" font-size="13.00" fill="#000000">Models diagram</text>
<text text-anchor="start" x="8" y="-273.6" font-family="Times,serif" font-size="13.00" fill="#000000">Date: Mar 02 2017 &#45; 12:42</text>
<text text-anchor="start" x="8" y="-260.6" font-family="Times,serif" font-size="13.00" fill="#000000">Migration version: 20170302145842</text>
<text text-anchor="start" x="8" y="-247.6" font-family="Times,serif" font-size="13.00" fill="#000000">Generated by RailRoady 1.5.2</text>
<text text-anchor="start" x="8" y="-234.6" font-family="Times,serif" font-size="13.00" fill="#000000">http://railroady.prestonlee.com</text>
</g>
<!-- ApplicationRecord -->
<g id="node2" class="node">
<title>ApplicationRecord</title>
<ellipse fill="none" stroke="#000000" cx="302.6877" cy="-264.5" rx="77.2916" ry="18"/>
<text text-anchor="middle" x="302.6877" y="-260.3" font-family="Times,serif" font-size="14.00" fill="#000000">ApplicationRecord</text>
</g>
<!-- Song -->
<g id="node3" class="node">
<title>Song</title>
<path fill="none" stroke="#000000" d="M445.8254,-.5C445.8254,-.5 669.55,-.5 669.55,-.5 675.55,-.5 681.55,-6.5 681.55,-12.5 681.55,-12.5 681.55,-102.5 681.55,-102.5 681.55,-108.5 675.55,-114.5 669.55,-114.5 669.55,-114.5 445.8254,-114.5 445.8254,-114.5 439.8254,-114.5 433.8254,-108.5 433.8254,-102.5 433.8254,-102.5 433.8254,-12.5 433.8254,-12.5 433.8254,-6.5 439.8254,-.5 445.8254,-.5"/>
<text text-anchor="middle" x="557.6877" y="-99.3" font-family="Times,serif" font-size="14.00" fill="#000000">Song</text>
<polyline fill="none" stroke="#000000" points="433.8254,-92.5 681.55,-92.5 "/>
<text text-anchor="start" x="441.8254" y="-77.3" font-family="Times,serif" font-size="14.00" fill="#000000">id :integer</text>
<text text-anchor="start" x="441.8254" y="-63.3" font-family="Times,serif" font-size="14.00" fill="#000000">name :character varying</text>
<text text-anchor="start" x="441.8254" y="-49.3" font-family="Times,serif" font-size="14.00" fill="#000000">gender :character varying</text>
<text text-anchor="start" x="441.8254" y="-35.3" font-family="Times,serif" font-size="14.00" fill="#000000">created_at :timestamp without time zone</text>
<text text-anchor="start" x="441.8254" y="-21.3" font-family="Times,serif" font-size="14.00" fill="#000000">updated_at :timestamp without time zone</text>
<text text-anchor="start" x="441.8254" y="-7.3" font-family="Times,serif" font-size="14.00" fill="#000000">user_id :integer</text>
</g>
<!-- User -->
<g id="node4" class="node">
<title>User</title>
<path fill="none" stroke="#000000" d="M410.053,-151.5C410.053,-151.5 705.3225,-151.5 705.3225,-151.5 711.3225,-151.5 717.3225,-157.5 717.3225,-163.5 717.3225,-163.5 717.3225,-365.5 717.3225,-365.5 717.3225,-371.5 711.3225,-377.5 705.3225,-377.5 705.3225,-377.5 410.053,-377.5 410.053,-377.5 404.053,-377.5 398.053,-371.5 398.053,-365.5 398.053,-365.5 398.053,-163.5 398.053,-163.5 398.053,-157.5 404.053,-151.5 410.053,-151.5"/>
<text text-anchor="middle" x="557.6877" y="-362.3" font-family="Times,serif" font-size="14.00" fill="#000000">User</text>
<polyline fill="none" stroke="#000000" points="398.053,-355.5 717.3225,-355.5 "/>
<text text-anchor="start" x="406.053" y="-340.3" font-family="Times,serif" font-size="14.00" fill="#000000">name :character varying</text>
<text text-anchor="start" x="406.053" y="-326.3" font-family="Times,serif" font-size="14.00" fill="#000000">email :character varying</text>
<text text-anchor="start" x="406.053" y="-312.3" font-family="Times,serif" font-size="14.00" fill="#000000">encrypted_password :character varying</text>
<text text-anchor="start" x="406.053" y="-298.3" font-family="Times,serif" font-size="14.00" fill="#000000">reset_password_token :character varying</text>
<text text-anchor="start" x="406.053" y="-284.3" font-family="Times,serif" font-size="14.00" fill="#000000">reset_password_sent_at :timestamp without time zone</text>
<text text-anchor="start" x="406.053" y="-270.3" font-family="Times,serif" font-size="14.00" fill="#000000">remember_created_at :timestamp without time zone</text>
<text text-anchor="start" x="406.053" y="-256.3" font-family="Times,serif" font-size="14.00" fill="#000000">sign_in_count :integer</text>
<text text-anchor="start" x="406.053" y="-242.3" font-family="Times,serif" font-size="14.00" fill="#000000">current_sign_in_at :timestamp without time zone</text>
<text text-anchor="start" x="406.053" y="-228.3" font-family="Times,serif" font-size="14.00" fill="#000000">last_sign_in_at :timestamp without time zone</text>
<text text-anchor="start" x="406.053" y="-214.3" font-family="Times,serif" font-size="14.00" fill="#000000">current_sign_in_ip :inet</text>
<text text-anchor="start" x="406.053" y="-200.3" font-family="Times,serif" font-size="14.00" fill="#000000">last_sign_in_ip :inet</text>
<text text-anchor="start" x="406.053" y="-186.3" font-family="Times,serif" font-size="14.00" fill="#000000">created_at :timestamp without time zone</text>
<text text-anchor="start" x="406.053" y="-172.3" font-family="Times,serif" font-size="14.00" fill="#000000">updated_at :timestamp without time zone</text>
<text text-anchor="start" x="406.053" y="-158.3" font-family="Times,serif" font-size="14.00" fill="#000000">id :integer</text>
</g>
<!-- User&#45;&gt;Song -->
<g id="edge1" class="edge">
<title>User&#45;&gt;Song</title>
<path fill="none" stroke="#baa1ec" d="M557.6877,-143.0453C557.6877,-136.9291 557.6877,-130.8991 557.6877,-125.0444"/>
<ellipse fill="none" stroke="#baa1ec" cx="557.6878" cy="-147.3095" rx="4" ry="4"/>
<polygon fill="#baa1ec" stroke="#baa1ec" points="557.6878,-124.7145 562.1877,-114.7145 557.6878,-119.7145 557.6877,-114.7145 557.6877,-114.7145 557.6877,-114.7145 557.6878,-119.7145 553.1877,-114.7146 557.6878,-124.7145 557.6878,-124.7145"/>
</g>
</g>
</svg>
