<?xml version="1.0" encoding="UTF-8" standalone="no"?>
<!DOCTYPE svg PUBLIC "-//W3C//DTD SVG 1.1//EN"
 "http://www.w3.org/Graphics/SVG/1.1/DTD/svg11.dtd">
<!-- Generated by graphviz version 2.40.1 (20161225.0304)
 -->
<!-- Title: models_diagram Pages: 1 -->
<svg width="783pt" height="551pt"
 viewBox="0.00 0.00 783.32 551.00" xmlns="http://www.w3.org/2000/svg" xmlns:xlink="http://www.w3.org/1999/xlink">
<g id="graph0" class="graph" transform="scale(1 1) rotate(0) translate(4 547)">
<title>models_diagram</title>
<polygon fill="transparent" stroke="transparent" points="-4,4 -4,-547 779.3225,-547 779.3225,4 -4,4"/>
<!-- _diagram_info -->
<g id="node1" class="node">
<title>_diagram_info</title>
<text text-anchor="start" x="8" y="-507.6" font-family="Times,serif" font-size="13.00" fill="#000000">Models diagram</text>
<text text-anchor="start" x="8" y="-494.6" font-family="Times,serif" font-size="13.00" fill="#000000">Date: Mar 02 2017 &#45; 13:28</text>
<text text-anchor="start" x="8" y="-481.6" font-family="Times,serif" font-size="13.00" fill="#000000">Migration version: 20170302162651</text>
<text text-anchor="start" x="8" y="-468.6" font-family="Times,serif" font-size="13.00" fill="#000000">Generated by RailRoady 1.5.2</text>
<text text-anchor="start" x="8" y="-455.6" font-family="Times,serif" font-size="13.00" fill="#000000">http://railroady.prestonlee.com</text>
</g>
<!-- ApplicationRecord -->
<g id="node2" class="node">
<title>ApplicationRecord</title>
<ellipse fill="none" stroke="#000000" cx="302.6877" cy="-485.5" rx="77.2916" ry="18"/>
<text text-anchor="middle" x="302.6877" y="-481.3" font-family="Times,serif" font-size="14.00" fill="#000000">ApplicationRecord</text>
</g>
<!-- Gender -->
<g id="node3" class="node">
<title>Gender</title>
<path fill="none" stroke="#000000" d="M163.8254,-235.5C163.8254,-235.5 387.55,-235.5 387.55,-235.5 393.55,-235.5 399.55,-241.5 399.55,-247.5 399.55,-247.5 399.55,-309.5 399.55,-309.5 399.55,-315.5 393.55,-321.5 387.55,-321.5 387.55,-321.5 163.8254,-321.5 163.8254,-321.5 157.8254,-321.5 151.8254,-315.5 151.8254,-309.5 151.8254,-309.5 151.8254,-247.5 151.8254,-247.5 151.8254,-241.5 157.8254,-235.5 163.8254,-235.5"/>
<text text-anchor="middle" x="275.6877" y="-306.3" font-family="Times,serif" font-size="14.00" fill="#000000">Gender</text>
<polyline fill="none" stroke="#000000" points="151.8254,-299.5 399.55,-299.5 "/>
<text text-anchor="start" x="159.8254" y="-284.3" font-family="Times,serif" font-size="14.00" fill="#000000">id :integer</text>
<text text-anchor="start" x="159.8254" y="-270.3" font-family="Times,serif" font-size="14.00" fill="#000000">name :character varying</text>
<text text-anchor="start" x="159.8254" y="-256.3" font-family="Times,serif" font-size="14.00" fill="#000000">created_at :timestamp without time zone</text>
<text text-anchor="start" x="159.8254" y="-242.3" font-family="Times,serif" font-size="14.00" fill="#000000">updated_at :timestamp without time zone</text>
</g>
<!-- Song -->
<g id="node4" class="node">
<title>Song</title>
<path fill="none" stroke="#000000" d="M315.8254,-.5C315.8254,-.5 539.55,-.5 539.55,-.5 545.55,-.5 551.55,-6.5 551.55,-12.5 551.55,-12.5 551.55,-116.5 551.55,-116.5 551.55,-122.5 545.55,-128.5 539.55,-128.5 539.55,-128.5 315.8254,-128.5 315.8254,-128.5 309.8254,-128.5 303.8254,-122.5 303.8254,-116.5 303.8254,-116.5 303.8254,-12.5 303.8254,-12.5 303.8254,-6.5 309.8254,-.5 315.8254,-.5"/>
<text text-anchor="middle" x="427.6877" y="-113.3" font-family="Times,serif" font-size="14.00" fill="#000000">Song</text>
<polyline fill="none" stroke="#000000" points="303.8254,-106.5 551.55,-106.5 "/>
<text text-anchor="start" x="311.8254" y="-91.3" font-family="Times,serif" font-size="14.00" fill="#000000">created_at :timestamp without time zone</text>
<text text-anchor="start" x="311.8254" y="-77.3" font-family="Times,serif" font-size="14.00" fill="#000000">name :character varying</text>
<text text-anchor="start" x="311.8254" y="-63.3" font-family="Times,serif" font-size="14.00" fill="#000000">gender :character varying</text>
<text text-anchor="start" x="311.8254" y="-49.3" font-family="Times,serif" font-size="14.00" fill="#000000">id :integer</text>
<text text-anchor="start" x="311.8254" y="-35.3" font-family="Times,serif" font-size="14.00" fill="#000000">updated_at :timestamp without time zone</text>
<text text-anchor="start" x="311.8254" y="-21.3" font-family="Times,serif" font-size="14.00" fill="#000000">user_id :integer</text>
<text text-anchor="start" x="311.8254" y="-7.3" font-family="Times,serif" font-size="14.00" fill="#000000">genders :character varying</text>
</g>
<!-- Gender&#45;&gt;Song -->
<g id="edge1" class="edge">
<title>Gender&#45;&gt;Song</title>
<path fill="none" stroke="#267393" d="M310.9662,-228.8316C330.3409,-201.5541 354.7261,-167.2224 376.191,-137.002"/>
<ellipse fill="none" stroke="#267393" cx="308.5807" cy="-232.1902" rx="4" ry="4"/>
<polygon fill="#267393" stroke="#267393" points="376.3704,-136.7494 385.8299,-131.2025 379.2658,-132.673 382.1612,-128.5966 382.1612,-128.5966 382.1612,-128.5966 379.2658,-132.673 378.4924,-125.9908 376.3704,-136.7494 376.3704,-136.7494"/>
</g>
<!-- User -->
<g id="node5" class="node">
<title>User</title>
<path fill="none" stroke="#000000" d="M468.053,-165.5C468.053,-165.5 763.3225,-165.5 763.3225,-165.5 769.3225,-165.5 775.3225,-171.5 775.3225,-177.5 775.3225,-177.5 775.3225,-379.5 775.3225,-379.5 775.3225,-385.5 769.3225,-391.5 763.3225,-391.5 763.3225,-391.5 468.053,-391.5 468.053,-391.5 462.053,-391.5 456.053,-385.5 456.053,-379.5 456.053,-379.5 456.053,-177.5 456.053,-177.5 456.053,-171.5 462.053,-165.5 468.053,-165.5"/>
<text text-anchor="middle" x="615.6877" y="-376.3" font-family="Times,serif" font-size="14.00" fill="#000000">User</text>
<polyline fill="none" stroke="#000000" points="456.053,-369.5 775.3225,-369.5 "/>
<text text-anchor="start" x="464.053" y="-354.3" font-family="Times,serif" font-size="14.00" fill="#000000">name :character varying</text>
<text text-anchor="start" x="464.053" y="-340.3" font-family="Times,serif" font-size="14.00" fill="#000000">email :character varying</text>
<text text-anchor="start" x="464.053" y="-326.3" font-family="Times,serif" font-size="14.00" fill="#000000">encrypted_password :character varying</text>
<text text-anchor="start" x="464.053" y="-312.3" font-family="Times,serif" font-size="14.00" fill="#000000">reset_password_token :character varying</text>
<text text-anchor="start" x="464.053" y="-298.3" font-family="Times,serif" font-size="14.00" fill="#000000">reset_password_sent_at :timestamp without time zone</text>
<text text-anchor="start" x="464.053" y="-284.3" font-family="Times,serif" font-size="14.00" fill="#000000">remember_created_at :timestamp without time zone</text>
<text text-anchor="start" x="464.053" y="-270.3" font-family="Times,serif" font-size="14.00" fill="#000000">sign_in_count :integer</text>
<text text-anchor="start" x="464.053" y="-256.3" font-family="Times,serif" font-size="14.00" fill="#000000">current_sign_in_at :timestamp without time zone</text>
<text text-anchor="start" x="464.053" y="-242.3" font-family="Times,serif" font-size="14.00" fill="#000000">last_sign_in_at :timestamp without time zone</text>
<text text-anchor="start" x="464.053" y="-228.3" font-family="Times,serif" font-size="14.00" fill="#000000">current_sign_in_ip :inet</text>
<text text-anchor="start" x="464.053" y="-214.3" font-family="Times,serif" font-size="14.00" fill="#000000">last_sign_in_ip :inet</text>
<text text-anchor="start" x="464.053" y="-200.3" font-family="Times,serif" font-size="14.00" fill="#000000">created_at :timestamp without time zone</text>
<text text-anchor="start" x="464.053" y="-186.3" font-family="Times,serif" font-size="14.00" fill="#000000">updated_at :timestamp without time zone</text>
<text text-anchor="start" x="464.053" y="-172.3" font-family="Times,serif" font-size="14.00" fill="#000000">id :integer</text>
</g>
<!-- User&#45;&gt;Song -->
<g id="edge2" class="edge">
<title>User&#45;&gt;Song</title>
<path fill="none" stroke="#2d046d" d="M510.7748,-159.0778C504.0465,-151.419 497.3938,-143.8463 490.9571,-136.5194"/>
<ellipse fill="none" stroke="#2d046d" cx="513.5427" cy="-162.2286" rx="4" ry="4"/>
<polygon fill="#2d046d" stroke="#2d046d" points="490.6641,-136.1858 487.4448,-125.7031 487.3641,-132.4294 484.0641,-128.6731 484.0641,-128.6731 484.0641,-128.6731 487.3641,-132.4294 480.6834,-131.6431 490.6641,-136.1858 490.6641,-136.1858"/>
</g>
<!-- UserSong -->
<g id="node6" class="node">
<title>UserSong</title>
<path fill="none" stroke="#000000" d="M409.8254,-428.5C409.8254,-428.5 633.55,-428.5 633.55,-428.5 639.55,-428.5 645.55,-434.5 645.55,-440.5 645.55,-440.5 645.55,-530.5 645.55,-530.5 645.55,-536.5 639.55,-542.5 633.55,-542.5 633.55,-542.5 409.8254,-542.5 409.8254,-542.5 403.8254,-542.5 397.8254,-536.5 397.8254,-530.5 397.8254,-530.5 397.8254,-440.5 397.8254,-440.5 397.8254,-434.5 403.8254,-428.5 409.8254,-428.5"/>
<text text-anchor="middle" x="521.6877" y="-527.3" font-family="Times,serif" font-size="14.00" fill="#000000">UserSong</text>
<polyline fill="none" stroke="#000000" points="397.8254,-520.5 645.55,-520.5 "/>
<text text-anchor="start" x="405.8254" y="-505.3" font-family="Times,serif" font-size="14.00" fill="#000000">id :integer</text>
<text text-anchor="start" x="405.8254" y="-491.3" font-family="Times,serif" font-size="14.00" fill="#000000">position :character varying</text>
<text text-anchor="start" x="405.8254" y="-477.3" font-family="Times,serif" font-size="14.00" fill="#000000">user_id :character varying</text>
<text text-anchor="start" x="405.8254" y="-463.3" font-family="Times,serif" font-size="14.00" fill="#000000">song_id :character varying</text>
<text text-anchor="start" x="405.8254" y="-449.3" font-family="Times,serif" font-size="14.00" fill="#000000">created_at :timestamp without time zone</text>
<text text-anchor="start" x="405.8254" y="-435.3" font-family="Times,serif" font-size="14.00" fill="#000000">updated_at :timestamp without time zone</text>
</g>
<!-- UserSong&#45;&gt;Song -->
<g id="edge4" class="edge">
<title>UserSong&#45;&gt;Song</title>
<path fill="none" stroke="#111df0" d="M462.3617,-421.6265C456.1174,-412.2233 450.6233,-402.2378 446.6877,-392 415.0527,-309.7056 414.7295,-207.1837 419.4174,-138.9894"/>
<ellipse fill="none" stroke="#111df0" cx="464.7519" cy="-425.0775" rx="4" ry="4"/>
<polygon fill="#111df0" stroke="#111df0" points="419.4359,-138.7386 424.663,-129.0987 419.8056,-133.7522 420.1754,-128.7659 420.1754,-128.7659 420.1754,-128.7659 419.8056,-133.7522 415.6877,-128.4332 419.4359,-138.7386 419.4359,-138.7386"/>
</g>
<!-- UserSong&#45;&gt;User -->
<g id="edge3" class="edge">
<title>UserSong&#45;&gt;User</title>
<path fill="none" stroke="#a4cc1c" d="M550.9788,-420.9973C553.9004,-414.5636 556.929,-407.8943 560.009,-401.1117"/>
<ellipse fill="none" stroke="#a4cc1c" cx="549.2764" cy="-424.7463" rx="4" ry="4"/>
<polygon fill="#a4cc1c" stroke="#a4cc1c" points="560.101,-400.9089 568.3331,-393.6644 562.1684,-396.3563 564.2358,-391.8037 564.2358,-391.8037 564.2358,-391.8037 562.1684,-396.3563 560.1385,-389.9431 560.101,-400.9089 560.101,-400.9089"/>
</g>
</g>
</svg>
