<?xml version="1.0" encoding="UTF-8" standalone="no"?>
<!DOCTYPE svg PUBLIC "-//W3C//DTD SVG 1.1//EN"
 "http://www.w3.org/Graphics/SVG/1.1/DTD/svg11.dtd">
<!-- Generated by graphviz version 2.40.1 (20161225.0304)
 -->
<!-- Title: models_diagram Pages: 1 -->
<svg width="505pt" height="225pt"
 viewBox="0.00 0.00 504.69 225.00" xmlns="http://www.w3.org/2000/svg" xmlns:xlink="http://www.w3.org/1999/xlink">
<g id="graph0" class="graph" transform="scale(1 1) rotate(0) translate(4 221)">
<title>models_diagram</title>
<polygon fill="transparent" stroke="transparent" points="-4,4 -4,-221 500.6877,-221 500.6877,4 -4,4"/>
<!-- _diagram_info -->
<g id="node1" class="node">
<title>_diagram_info</title>
<text text-anchor="start" x="8" y="-202.6" font-family="Times,serif" font-size="13.00" fill="#000000">Models diagram</text>
<text text-anchor="start" x="8" y="-189.6" font-family="Times,serif" font-size="13.00" fill="#000000">Date: Mar 02 2017 &#45; 13:28</text>
<text text-anchor="start" x="8" y="-176.6" font-family="Times,serif" font-size="13.00" fill="#000000">Migration version: 20170302162651</text>
<text text-anchor="start" x="8" y="-163.6" font-family="Times,serif" font-size="13.00" fill="#000000">Generated by RailRoady 1.5.2</text>
<text text-anchor="start" x="8" y="-150.6" font-family="Times,serif" font-size="13.00" fill="#000000">http://railroady.prestonlee.com</text>
</g>
<!-- ApplicationRecord -->
<g id="node2" class="node">
<title>ApplicationRecord</title>
<ellipse fill="none" stroke="#000000" cx="302.6877" cy="-180.5" rx="77.2916" ry="18"/>
<text text-anchor="middle" x="302.6877" y="-176.3" font-family="Times,serif" font-size="14.00" fill="#000000">ApplicationRecord</text>
</g>
<!-- Gender -->
<g id="node3" class="node">
<title>Gender</title>
<ellipse fill="none" stroke="#000000" cx="350.6877" cy="-90" rx="36.2645" ry="18"/>
<text text-anchor="middle" x="350.6877" y="-85.8" font-family="Times,serif" font-size="14.00" fill="#000000">Gender</text>
</g>
<!-- Song -->
<g id="node4" class="node">
<title>Song</title>
<ellipse fill="none" stroke="#000000" cx="414.6877" cy="-18" rx="28.0822" ry="18"/>
<text text-anchor="middle" x="414.6877" y="-13.8" font-family="Times,serif" font-size="14.00" fill="#000000">Song</text>
</g>
<!-- Gender&#45;&gt;Song -->
<g id="edge1" class="edge">
<title>Gender&#45;&gt;Song</title>
<path fill="none" stroke="#92cb89" d="M370.9436,-67.2122C378.1914,-59.0584 386.3725,-49.8546 393.6823,-41.6311"/>
<ellipse fill="none" stroke="#92cb89" cx="368.189" cy="-70.3111" rx="4" ry="4"/>
<polygon fill="#92cb89" stroke="#92cb89" points="393.7211,-41.5875 403.7281,-37.103 397.0429,-37.8504 400.3647,-34.1134 400.3647,-34.1134 400.3647,-34.1134 397.0429,-37.8504 397.0014,-31.1237 393.7211,-41.5875 393.7211,-41.5875"/>
</g>
<!-- User -->
<g id="node5" class="node">
<title>User</title>
<ellipse fill="none" stroke="#000000" cx="469.6877" cy="-90" rx="27" ry="18"/>
<text text-anchor="middle" x="469.6877" y="-85.8" font-family="Times,serif" font-size="14.00" fill="#000000">User</text>
</g>
<!-- User&#45;&gt;Song -->
<g id="edge2" class="edge">
<title>User&#45;&gt;Song</title>
<path fill="none" stroke="#0cbc4e" d="M452.3233,-67.2683C446.2494,-59.317 439.4085,-50.3617 433.2413,-42.2883"/>
<ellipse fill="none" stroke="#0cbc4e" cx="454.7792" cy="-70.4834" rx="4" ry="4"/>
<polygon fill="#0cbc4e" stroke="#0cbc4e" points="433.1891,-42.22 430.6947,-31.5416 430.1539,-38.2466 427.1187,-34.2733 427.1187,-34.2733 427.1187,-34.2733 430.1539,-38.2466 423.5427,-37.005 433.1891,-42.22 433.1891,-42.22"/>
</g>
<!-- UserSong -->
<g id="node6" class="node">
<title>UserSong</title>
<ellipse fill="none" stroke="#000000" cx="442.6877" cy="-180.5" rx="44.9768" ry="18"/>
<text text-anchor="middle" x="442.6877" y="-176.3" font-family="Times,serif" font-size="14.00" fill="#000000">UserSong</text>
</g>
<!-- UserSong&#45;&gt;Song -->
<g id="edge4" class="edge">
<title>UserSong&#45;&gt;Song</title>
<path fill="none" stroke="#7d26db" d="M438.2252,-154.6014C433.1189,-124.9663 424.7856,-76.6038 419.5267,-46.0833"/>
<ellipse fill="none" stroke="#7d26db" cx="438.905" cy="-158.5469" rx="4" ry="4"/>
<polygon fill="#7d26db" stroke="#7d26db" points="419.5033,-45.9467 422.2398,-35.3277 418.6542,-41.0193 417.8051,-36.0919 417.8051,-36.0919 417.8051,-36.0919 418.6542,-41.0193 413.3705,-36.8561 419.5033,-45.9467 419.5033,-45.9467"/>
</g>
<!-- UserSong&#45;&gt;User -->
<g id="edge3" class="edge">
<title>UserSong&#45;&gt;User</title>
<path fill="none" stroke="#6876eb" d="M450.3816,-154.7112C453.8397,-143.1202 457.9258,-129.4245 461.4463,-117.6242"/>
<ellipse fill="none" stroke="#6876eb" cx="449.1657" cy="-158.7871" rx="4" ry="4"/>
<polygon fill="#6876eb" stroke="#6876eb" points="461.5055,-117.4254 468.6767,-109.1293 462.935,-112.6341 464.3645,-107.8427 464.3645,-107.8427 464.3645,-107.8427 462.935,-112.6341 460.0523,-106.5562 461.5055,-117.4254 461.5055,-117.4254"/>
</g>
</g>
</svg>
